<?xml version="1.0" encoding="iso-8859-1"?>
<!-- Generator: Adobe Illustrator 19.0.0, SVG Export Plug-In . SVG Version: 6.00 Build 0)  -->
<svg version="1.1" id="Layer_1" xmlns="http://www.w3.org/2000/svg" xmlns:xlink="http://www.w3.org/1999/xlink" x="0px" y="0px"
	 viewBox="0 0 512 512" style="enable-background:new 0 0 512 512;" xml:space="preserve">
<path style="fill:#5B5D6E;" d="M503.172,414.897H8.828c-4.875,0-8.828-3.953-8.828-8.828V105.931c0-4.875,3.953-8.828,8.828-8.828
	h494.345c4.875,0,8.828,3.953,8.828,8.828v300.138C512,410.944,508.047,414.897,503.172,414.897z"/>
<path style="fill:#464655;" d="M26.483,273.655c0,28.189,8.914,54.236,23.94,75.698c1.65,2.356,4.355,3.751,7.231,3.751h396.872
	c2.877,0,5.581-1.395,7.231-3.751c15.026-21.463,23.94-47.51,23.94-75.698c0-28.189-8.914-54.236-23.94-75.698
	c-1.65-2.356-4.355-3.751-7.231-3.751H57.654c-2.877,0-5.581,1.395-7.231,3.751C35.396,219.42,26.483,245.466,26.483,273.655z"/>
<path style="fill:#C7CFE2;" d="M70.621,273.655c0,43.879,35.57,79.448,79.448,79.448V194.207
	C106.19,194.207,70.621,229.777,70.621,273.655z"/>
<path style="fill:#AFB9D2;" d="M97.103,273.655c0,29.252,23.713,52.966,52.966,52.966V220.69
	C120.817,220.69,97.103,244.403,97.103,273.655z"/>
<rect x="150.069" y="194.207" style="fill:#4F5060;" width="211.862" height="158.897"/>
<path style="fill:#464655;" d="M503.172,97.103H8.828c-4.875,0-8.828,3.953-8.828,8.828v61.793h8.828
	c4.875,0,8.828-3.953,8.828-8.828v-17.655c0-4.875,3.953-8.828,8.828-8.828h459.034c4.875,0,8.828,3.953,8.828,8.828v17.655
	c0,4.875,3.953,8.828,8.828,8.828H512v-61.793C512,101.056,508.047,97.103,503.172,97.103z"/>
<path style="fill:#EFF2FA;" d="M123.586,273.655c0,14.626,11.857,26.483,26.483,26.483v-52.966
	C135.443,247.172,123.586,259.029,123.586,273.655z"/>
<path style="fill:#C7CFE2;" d="M441.379,273.655c0-43.879-35.57-79.448-79.448-79.448v158.897
	C405.81,353.103,441.379,317.534,441.379,273.655z"/>
<path style="fill:#AFB9D2;" d="M414.897,273.655c0-29.252-23.713-52.966-52.966-52.966v105.931
	C391.183,326.621,414.897,302.908,414.897,273.655z"/>
<path style="fill:#EFF2FA;" d="M388.414,273.655c0-14.626-11.857-26.483-26.483-26.483v52.966
	C376.557,300.138,388.414,288.281,388.414,273.655z"/>
<path style="fill:#5B5D6E;" d="M326.621,326.621H185.379c-4.875,0-8.828-3.953-8.828-8.828v-88.276c0-4.875,3.953-8.828,8.828-8.828
	h141.241c4.875,0,8.828,3.953,8.828,8.828v88.276C335.448,322.668,331.496,326.621,326.621,326.621z"/>
<g>
</g>
<g>
</g>
<g>
</g>
<g>
</g>
<g>
</g>
<g>
</g>
<g>
</g>
<g>
</g>
<g>
</g>
<g>
</g>
<g>
</g>
<g>
</g>
<g>
</g>
<g>
</g>
<g>
</g>
</svg>
